<svg width="42" height="42" viewBox="0 0 42 42" fill="none" xmlns="http://www.w3.org/2000/svg">
<circle opacity="0.2" cx="21" cy="21" r="21" fill="#CFD7DC"/>
<path d="M29 29V27C29 25.9391 28.5786 24.9217 27.8284 24.1716C27.0783 23.4214 26.0609 23 25 23H17C15.9391 23 14.9217 23.4214 14.1716 24.1716C13.4214 24.9217 13 25.9391 13 27V29" stroke="#1B1E1F" stroke-width="2" stroke-linecap="round" stroke-linejoin="round"/>
<path d="M21 19C23.2091 19 25 17.2091 25 15C25 12.7909 23.2091 11 21 11C18.7909 11 17 12.7909 17 15C17 17.2091 18.7909 19 21 19Z" stroke="#1B1E1F" stroke-width="2" stroke-linecap="round" stroke-linejoin="round"/>
</svg>
