<svg width="19" height="18" viewBox="0 0 19 18" fill="none" xmlns="http://www.w3.org/2000/svg">
<path d="M3.1667 0C1.43028 0 0 1.35498 0 3V15C0 16.645 1.43028 18 3.1667 18H12.139C13.6042 18 14.9083 17.0903 15.2727 15.749C15.3073 15.6218 15.315 15.4894 15.2955 15.3593C15.276 15.2293 15.2296 15.1042 15.1591 14.9911C15.0886 14.878 14.9952 14.7792 14.8843 14.7003C14.7735 14.6214 14.6473 14.564 14.513 14.5312C14.3787 14.4985 14.239 14.4912 14.1017 14.5097C13.9644 14.5282 13.8323 14.5721 13.713 14.6389C13.5936 14.7057 13.4893 14.7942 13.406 14.8992C13.3227 15.0042 13.2621 15.1238 13.2276 15.251C13.1233 15.6347 12.6415 16 12.139 16H3.1667C2.57138 16 2.11113 15.564 2.11113 15V3C2.11113 2.43602 2.57138 2 3.1667 2H12.139C12.6415 2 13.1233 2.36525 13.2276 2.74902C13.2621 2.87624 13.3227 2.99577 13.406 3.10079C13.4893 3.20581 13.5936 3.29426 13.713 3.3611C13.8323 3.42793 13.9644 3.47183 14.1017 3.49031C14.239 3.50878 14.3787 3.50145 14.513 3.46875C14.6473 3.43605 14.7735 3.37861 14.8843 3.29971C14.9952 3.22081 15.0886 3.122 15.1591 3.00892C15.2296 2.89584 15.276 2.77071 15.2955 2.64066C15.315 2.51061 15.3073 2.37819 15.2727 2.25098C14.9083 0.909747 13.6042 0 12.139 0H3.1667ZM14.7666 4.99023C14.5567 4.99048 14.3516 5.05 14.1776 5.16119C14.0036 5.27238 13.8685 5.43018 13.7896 5.61446C13.7107 5.79873 13.6916 6.0011 13.7347 6.19571C13.7778 6.39032 13.8812 6.56834 14.0316 6.70703L15.3964 8H5.80562C5.66574 7.99813 5.52687 8.02261 5.39707 8.07202C5.26727 8.12143 5.14913 8.1948 5.04951 8.28784C4.9499 8.38088 4.8708 8.49176 4.81681 8.61401C4.76282 8.73627 4.73502 8.86747 4.73502 9C4.73502 9.13253 4.76282 9.26373 4.81681 9.38599C4.8708 9.50824 4.9499 9.61912 5.04951 9.71216C5.14913 9.8052 5.26727 9.87857 5.39707 9.92798C5.52687 9.97739 5.66574 10.0019 5.80562 10H15.3964L14.0316 11.293C13.9303 11.3851 13.8494 11.4955 13.7937 11.6176C13.738 11.7397 13.7086 11.8712 13.7071 12.0042C13.7057 12.1373 13.7323 12.2692 13.7854 12.3924C13.8385 12.5156 13.917 12.6275 14.0163 12.7216C14.1156 12.8157 14.2337 12.89 14.3637 12.9403C14.4937 12.9906 14.6331 13.0158 14.7735 13.0144C14.9139 13.0131 15.0527 12.9852 15.1816 12.9324C15.3105 12.8796 15.427 12.803 15.5243 12.707L18.691 9.70703C18.8888 9.51949 19 9.26517 19 9C19 8.73483 18.8888 8.48051 18.691 8.29297L15.5243 5.29297C15.4258 5.19706 15.308 5.12084 15.1778 5.06884C15.0477 5.01684 14.9078 4.99011 14.7666 4.99023V4.99023Z" fill="#FFCE3A"/>
</svg>
