<svg width="25" height="24" viewBox="0 0 25 24" fill="none" xmlns="http://www.w3.org/2000/svg">
<path fill-rule="evenodd" clip-rule="evenodd" d="M17.64 23.6316H7.13146C3.56295 23.6316 0.659554 20.8168 0.659554 17.3572V7.16923C0.659554 3.7096 3.56295 0.894775 7.13146 0.894775H17.64C21.2085 0.894775 24.1119 3.7096 24.1119 7.16923V17.3572C24.1119 20.8168 21.2085 23.6316 17.64 23.6316ZM18.6822 7.65307C18.2816 7.65307 17.8876 7.49392 17.6043 7.22016C17.3201 6.94368 17.1559 6.56261 17.1559 6.17336C17.1559 5.7832 17.3201 5.40122 17.6043 5.12747C17.8876 4.85099 18.2816 4.69365 18.6822 4.69365C19.0846 4.69365 19.4786 4.85099 19.761 5.12747C20.0462 5.40122 20.2085 5.7832 20.2085 6.17336C20.2085 6.56171 20.0462 6.94368 19.761 7.22016C19.4768 7.49392 19.0846 7.65307 18.6822 7.65307ZM12.3857 18.122C9.05361 18.122 6.34252 15.4936 6.34252 12.2632C6.34252 9.03275 9.05361 6.40437 12.3857 6.40437C15.7178 6.40437 18.4289 9.03275 18.4289 12.2632C18.4289 15.4936 15.7178 18.122 12.3857 18.122ZM12.3857 8.42158C10.2009 8.42158 8.42321 10.145 8.42321 12.2632C8.42321 14.3814 10.2009 16.1039 12.3857 16.1039C14.5705 16.1039 16.3482 14.3814 16.3482 12.2632C16.3482 10.145 14.5705 8.42158 12.3857 8.42158Z" fill="#879095"/>
</svg>
