<svg width="28" height="22" viewBox="0 0 28 22" fill="none" xmlns="http://www.w3.org/2000/svg">
<path d="M27.1561 0.748614C25.984 1.54113 24.6863 2.14727 23.3129 2.5437C22.5758 1.73123 21.5961 1.15537 20.5064 0.894012C19.4167 0.63265 18.2696 0.698394 17.2202 1.08235C16.1708 1.46631 15.2697 2.14996 14.6388 3.04083C14.0079 3.93171 13.6776 4.98683 13.6927 6.06349V7.23675C11.5418 7.29021 9.41045 6.83293 7.48853 5.90562C5.56661 4.97832 3.91377 3.60977 2.6772 1.92188C2.6772 1.92188 -2.21858 12.4812 8.79691 17.1743C6.27624 18.8145 3.27345 19.6369 0.229309 19.5208C11.2448 25.3871 24.7082 19.5208 24.7082 6.02829C24.7071 5.70148 24.6743 5.37548 24.6103 5.05448C25.8594 3.87359 26.7409 2.38263 27.1561 0.748614Z" fill="#879095"/>
</svg>
