<svg width="35" height="40" viewBox="0 0 35 40" fill="none" xmlns="http://www.w3.org/2000/svg">
<path fill-rule="evenodd" clip-rule="evenodd" d="M17.002 21.5487H16.8695C14.443 21.5072 12.4803 20.6542 11.0393 19.0228C7.85088 15.4286 8.3809 9.26708 8.43887 8.67909C8.64591 4.23188 10.766 2.12008 12.5051 1.13458C14.236 0.149068 16.0414 0 16.9606 0H17.0103H17.0434H17.1014C18.7743 0.0331263 20.2732 0.430642 21.5569 1.1677C23.2794 2.15321 25.3664 4.26501 25.5734 8.67909C25.6314 9.26708 26.1614 15.4286 22.973 19.0228C21.5238 20.6542 19.561 21.5072 17.1345 21.5487H17.0517H17.002ZM10.6548 8.84648C10.6526 8.85877 10.65 8.87245 10.65 8.88613C10.6418 8.93582 10.0786 14.5921 12.7039 17.5404C13.7391 18.7164 15.1387 19.2961 16.9606 19.3126H17.002H17.0434C18.8737 19.2961 20.265 18.7164 21.3084 17.5404C23.942 14.5756 23.3623 8.9441 23.354 8.88613C23.3457 8.86957 23.3457 8.84472 23.3457 8.81988C23.089 3.20497 19.2877 2.294 17.0517 2.24431H16.9855H16.9523C15.1469 2.24431 10.9316 2.88199 10.6583 8.81988C10.6583 8.82732 10.6567 8.83644 10.6548 8.84648Z" fill="#DADADA"/>
<path d="M34.0207 31.7681C34.0207 31.7598 34.0207 31.7515 34.0207 31.7433C34.0207 31.677 34.0124 31.6108 34.0124 31.5362C33.9627 29.8965 33.855 26.0621 30.2608 24.8364C30.236 24.8281 30.2029 24.8199 30.178 24.8116C26.443 23.8592 23.3374 21.706 23.3043 21.6811C22.7991 21.325 22.1035 21.4493 21.7474 21.9544C21.3913 22.4596 21.5155 23.1553 22.0207 23.5114C22.1614 23.6108 25.4575 25.9048 29.5817 26.9648C31.5113 27.6522 31.7267 29.7143 31.7846 31.6025C31.7846 31.677 31.7846 31.7433 31.7929 31.8095C31.8012 32.5549 31.7515 33.706 31.619 34.3685C30.2774 35.1304 25.0186 37.764 17.0186 37.764C9.05171 37.764 3.75979 35.1221 2.40989 34.3602C2.27739 33.6977 2.21942 32.5466 2.23598 31.8012C2.23598 31.735 2.24426 31.6687 2.24426 31.5942C2.30223 29.706 2.51755 27.6439 4.44716 26.9565C8.57138 25.8965 11.8674 23.5942 12.0082 23.5031C12.5134 23.147 12.6376 22.4513 12.2815 21.9462C11.9254 21.441 11.2298 21.3168 10.7246 21.6729C10.6915 21.6977 7.60244 23.8509 3.85089 24.8033C3.81776 24.8116 3.79291 24.8199 3.76807 24.8281C0.173867 26.0621 0.0662064 29.8965 0.016517 31.5279C0.016517 31.6025 0.016517 31.6687 0.0082354 31.735C0.0082354 31.7433 0.0082354 31.7515 0.0082354 31.7598C-4.61694e-05 32.1905 -0.00832772 34.4016 0.430596 35.5114C0.513411 35.7267 0.66248 35.9089 0.861237 36.0331C1.10968 36.1987 7.06414 39.9917 17.0269 39.9917C26.9896 39.9917 32.9441 36.1905 33.1925 36.0331C33.383 35.9089 33.5403 35.7267 33.6231 35.5114C34.0372 34.4099 34.0289 32.1987 34.0207 31.7681Z" fill="#DADADA"/>
</svg>
