<svg width="749" height="145" viewBox="0 0 749 145" fill="none" xmlns="http://www.w3.org/2000/svg">
<rect x="129" y="130.131" width="620" height="14.7385" fill="#FFEA66"/>
<path d="M190.523 73.0909C190.562 67.0455 194.062 63.3864 199.432 63.3864C205.04 63.3864 208.222 67.0455 208.182 73.0909V107.455H230.136V68.4773C230.176 55.1136 221.744 45.5682 208.818 45.5682C199.79 45.5682 193.108 50.1818 190.364 57.9773H189.727V26H168.568V107.455H190.523V73.0909Z" fill="#1B1E1F"/>
<path d="M265.678 108.568C285.565 108.568 297.337 95.8409 297.337 77.0682C297.337 58.2955 285.565 45.5682 265.678 45.5682C245.792 45.5682 234.019 58.2955 234.019 77.0682C234.019 95.8409 245.792 108.568 265.678 108.568ZM265.837 92.3409C259.951 92.3409 256.451 86.4943 256.451 76.9091C256.451 67.3239 259.951 61.4773 265.837 61.4773C271.406 61.4773 274.906 67.3239 274.906 76.9091C274.906 86.4943 271.406 92.3409 265.837 92.3409Z" fill="#1B1E1F"/>
<path d="M301.519 107.455H323.473V71.8182C323.473 66.4886 326.257 63.2273 330.792 63.2273C335.326 63.2273 338.269 66.4886 338.269 71.8182V107.455H359.269V71.8182C359.269 66.4886 362.053 63.2273 366.587 63.2273C371.121 63.2273 374.064 66.4886 374.064 71.8182V107.455H396.019V66.25C396.019 53.7216 387.985 45.5682 376.292 45.5682C367.223 45.5682 359.905 50.5 357.837 57.9773H357.201C355.928 50.5 349.087 45.5682 340.496 45.5682C332.024 45.5682 325.542 50.3409 322.996 57.9773H322.36V46.3636H301.519V107.455Z" fill="#1B1E1F"/>
<path d="M431.392 108.568C448.335 108.568 459.233 100.455 461.301 87.7273H441.255C439.983 91.1875 436.363 93.1364 431.869 93.1364C425.346 93.1364 421.528 88.8409 421.528 82.9545V82H461.301V76.9091C461.301 57.4602 449.369 45.5682 430.915 45.5682C411.983 45.5682 399.892 58.1364 399.892 77.0682C399.892 96.8352 411.824 108.568 431.392 108.568ZM421.528 69.9091C421.648 64.6193 426.023 61 431.392 61C436.841 61 440.977 64.6591 441.096 69.9091H421.528Z" fill="#1B1E1F"/>
<path d="M465.214 107.455H487.009V97.4318H487.486C490.032 103.636 495.918 108.25 504.509 108.25C517.555 108.25 528.532 98.0682 528.532 76.9091C528.532 54.7955 516.759 45.5682 504.668 45.5682C495.6 45.5682 489.873 50.8182 487.486 57.0227H487.168V26H465.214V107.455ZM486.691 76.9091C486.691 67.8409 490.35 62.4318 496.396 62.4318C502.441 62.4318 505.941 67.8409 505.941 76.9091C505.941 85.9773 502.441 91.3864 496.396 91.3864C490.35 91.3864 486.691 85.8182 486.691 76.9091Z" fill="#1B1E1F"/>
<path d="M572.605 80.7273C572.645 86.7727 569.145 90.4318 563.696 90.4318C558.168 90.4318 554.986 86.7727 554.946 80.7273V46.3636H532.992V85.3409C533.031 98.7045 541.463 108.25 554.31 108.25C563.418 108.25 570.418 103.636 573.083 95.8409H573.719V107.455H594.56V46.3636H572.605V80.7273Z" fill="#1B1E1F"/>
<path d="M601.635 107.455H655.248V90.75H629.953V90.4318L654.294 59.7273V46.3636H602.589V63.0682H628.362V63.3864L601.635 95.3636V107.455Z" fill="#1B1E1F"/>
<path d="M663.297 107.455H716.911V90.75H691.616V90.4318L715.956 59.7273V46.3636H664.252V63.0682H690.025V63.3864L663.297 95.3636V107.455Z" fill="#1B1E1F"/>
<path d="M0 72C0 32.2355 32.2355 0 72 0C111.765 0 144 32.2355 144 72V139.686C144 142.621 141.621 145 138.686 145H5.31413C2.37921 145 0 142.621 0 139.686V72Z" fill="#FFCE3A"/>
<circle cx="72" cy="73" r="54" fill="url(#paint0_linear)"/>
<circle cx="72" cy="73" r="45" fill="url(#paint1_linear)"/>
<circle cx="72" cy="73" r="37" fill="#1B1E1F"/>
<rect x="742" y="108" width="7" height="37" fill="#CFD7DC"/>
<defs>
<linearGradient id="paint0_linear" x1="72" y1="19" x2="72" y2="127" gradientUnits="userSpaceOnUse">
<stop stop-color="#DEA700"/>
<stop offset="1" stop-color="#FFC518"/>
</linearGradient>
<linearGradient id="paint1_linear" x1="72" y1="28" x2="72" y2="118" gradientUnits="userSpaceOnUse">
<stop stop-color="#FFC518"/>
<stop offset="1" stop-color="#DEA700"/>
</linearGradient>
</defs>
</svg>
